HIERARCHY
ROOT hip
{
	OFFSET 0.000000 0.000000 0.000000 
	CHANNELS 6 Xposition Yposition Zposition Xrotation Zrotation Yrotation
	JOINT abdomen
	{
		OFFSET 0.000000 3.402643 0.000000 
		CHANNELS 3 Xrotation Zrotation Yrotation
		JOINT chest
		{
			OFFSET 0.000000 8.438565 -0.680529 
			CHANNELS 3 Xrotation Zrotation Yrotation
			JOINT neck
			{
				OFFSET 0.000000 10.207942 -0.272212 
				CHANNELS 3 Xrotation Zrotation Yrotation
				JOINT head
				{
					OFFSET 0.000000 3.130431 0.000000 
					CHANNELS 3 Xrotation Zrotation Yrotation
					End Site
					{
						OFFSET 0.000000 3.130435 0.000000 
					}
				}
			}
			JOINT lCollar
			{
				OFFSET 3.470700 6.669187 -0.816635 
				CHANNELS 3 Yrotation Zrotation Xrotation
				JOINT lShldr
				{
					OFFSET 3.198488 0.000000 0.000000 
					CHANNELS 3 Zrotation Yrotation Xrotation
					JOINT lForeArm
					{
						OFFSET 10.139888 0.000000 0.000000 
						CHANNELS 3 Yrotation Zrotation Xrotation
						JOINT lHand
						{
							OFFSET 8.370511 0.000000 0.000000 
							CHANNELS 3 Zrotation Yrotation Xrotation
							End Site
							{
								OFFSET 4.083176 0.000000 0.000000 
							}
						}
					}
				}
			}
			JOINT rCollar
			{
				OFFSET -3.470700 6.669187 -0.816635 
				CHANNELS 3 Yrotation Zrotation Xrotation
				JOINT rShldr
				{
					OFFSET -3.198488 0.000000 0.000000 
					CHANNELS 3 Zrotation Yrotation Xrotation
					JOINT rForeArm
					{
						OFFSET -10.139888 0.000000 0.000000 
						CHANNELS 3 Yrotation Zrotation Xrotation
						JOINT rHand
						{
							OFFSET -8.370511 0.000000 0.000000 
							CHANNELS 3 Zrotation Yrotation Xrotation
							End Site
							{
								OFFSET -4.083176 0.000000 0.000000 
							}
						}
					}
				}
			}
		}
	}
	JOINT lThigh
	{
		OFFSET 5.308129 -1.633274 1.361059 
		CHANNELS 3 Xrotation Zrotation Yrotation
		JOINT lShin
		{
			OFFSET -2.041588 -20.007561 0.000000 
			CHANNELS 3 Xrotation Zrotation Yrotation
			JOINT lFoot
			{
				OFFSET 0.000000 -19.190928 -1.224953 
				CHANNELS 3 Xrotation Yrotation Zrotation
				End Site
				{
					OFFSET 0.000000 -2.449906 4.627600 
				}
			}
		}
	}
	JOINT rThigh
	{
		OFFSET -5.308129 -1.633274 1.361059 
		CHANNELS 3 Xrotation Zrotation Yrotation
		JOINT rShin
		{
			OFFSET 2.041588 -20.007561 0.000000 
			CHANNELS 3 Xrotation Zrotation Yrotation
			JOINT rFoot
			{
				OFFSET 0.000000 -19.190928 -1.224953 
				CHANNELS 3 Xrotation Yrotation Zrotation
				End Site
				{
					OFFSET 0.000000 -2.449906 4.627600 
				}
			}
		}
	}
}
MOTION
Frames: 6
Frame Time: 0.016667
109.574593 40.033836 -45.808224 -8.629390 14.576700 -131.151001 -12.997400 4.836270 3.942610 12.329900 1.797730 1.761740 29.150400 8.060510 -7.161120 -8.603520 0.000000 0.000000 2.000000 -2.000000 0.000000 -83.815804 -1.288920 140.070007 54.443901 -0.294350 0.111280 5.445070 -1.177580 -137.309006 -2.000000 2.000000 0.000000 69.596497 10.644600 145.119003 -67.168503 0.267899 0.126016 6.475570 1.551810 -128.649994 -55.961369 -3.952174 -11.564332 42.356716 1.045219 3.648520 -0.488646 -14.663267 -1.572416 -28.101484 -0.486478 -10.090606 61.498947 -1.210369 -3.959365 -22.467730 -9.667907 -3.940649 
109.147369 40.084984 -45.978531 -8.425510 14.787200 -131.205994 -13.020100 4.962390 3.891760 12.329100 1.962030 1.728250 29.225100 8.154540 -7.067870 -8.603520 0.000000 0.000000 2.000000 -2.000000 0.000000 -84.176598 -1.230990 139.709000 54.463402 -0.294312 0.111307 5.442500 -1.170920 -137.337997 -2.000000 2.000000 0.000000 69.665199 10.644200 145.334000 -67.022003 0.268221 0.125880 6.479790 1.543080 -128.572006 -55.742340 -3.835823 -11.629380 42.904984 1.037649 3.665850 -1.381000 -14.881453 -1.841619 -28.271687 -0.670422 -9.875605 62.479591 -1.147239 -3.991829 -21.536516 -6.794246 -2.406518 
108.716888 40.153267 -46.143108 -8.336920 14.848500 -131.289993 -13.049500 4.900750 3.864520 12.280600 1.894140 1.716870 29.334600 7.883640 -7.041720 -8.603520 0.000000 0.000000 2.000000 -2.000000 0.000000 -84.147102 -1.289810 139.582001 54.297401 -0.294634 0.111076 5.444270 -1.176840 -137.270004 -2.000000 2.000000 0.000000 69.909500 10.477800 145.518997 -66.973198 0.268328 0.125834 6.478180 1.567640 -128.757004 -55.425995 -3.839380 -11.509061 43.404652 1.037863 3.697668 -1.981056 -14.988484 -2.061128 -28.848698 -1.157991 -10.158517 63.951969 -1.019569 -4.051236 -17.777544 -6.472754 -1.890386 
108.286629 40.221409 -46.307682 -8.248290 14.909800 -131.373001 -13.078900 4.839130 3.837330 12.241800 1.826320 1.705930 29.434999 7.591830 -7.014150 -8.603520 0.000000 0.000000 2.000000 -2.000000 0.000000 -84.127296 -1.358420 139.445999 54.121601 -0.294975 0.110831 5.446220 -1.182930 -137.210999 -2.000000 2.000000 0.000000 70.153801 10.311400 145.695007 -66.914597 0.268456 0.125780 6.468810 1.586210 -128.942001 -55.061394 -3.834877 -11.397911 43.757019 1.024647 3.700004 -2.502979 -15.088231 -2.239504 -29.514845 -1.668717 -10.436797 65.473152 -0.897811 -4.116323 -13.970017 -6.142181 -1.427444 
107.882668 40.298260 -46.476978 -8.298780 14.908000 -131.503006 -13.096900 4.788660 3.867780 12.212300 1.864830 1.718860 29.501301 8.171640 -7.138000 -8.603520 0.000000 0.000000 2.000000 -2.000000 0.000000 -84.117798 -1.348420 139.572998 54.043499 -0.295126 0.110721 5.437460 -1.183860 -137.259995 -2.000000 2.000000 0.000000 70.446701 10.223700 145.645996 -66.895103 0.268499 0.125761 6.470740 1.602840 -129.067993 -54.695007 -3.840696 -11.148859 44.001663 1.031105 3.713669 -3.056173 -15.291383 -2.453490 -30.757742 -2.523458 -10.541984 67.544151 -0.698098 -4.187973 -9.606672 -4.414380 -0.678272 
107.478691 40.375111 -46.646271 -8.339180 14.906500 -131.639999 -13.124300 4.731980 3.909920 12.182900 1.893670 1.723410 29.568800 8.742400 -7.254140 -8.603520 0.000000 0.000000 2.000000 -2.000000 0.000000 -84.108200 -1.348210 139.690002 53.965302 -0.295276 0.110612 5.445070 -1.177580 -137.309006 -2.000000 2.000000 0.000000 70.739601 10.135900 145.597000 -66.865799 0.268564 0.125734 6.465290 1.613040 -129.184998 -54.319881 -3.845048 -10.909992 44.256485 1.013641 3.717600 -3.607152 -15.470599 -2.663065 -31.997982 -3.358964 -10.631577 69.596237 -0.508248 -4.282836 -5.260716 -2.660314 -0.077625 
